<svg width="0" height="0" class="hidden">
  <symbol xmlns="http://www.w3.org/2000/svg" preserveAspectRatio="xMidYMid" viewBox="0 0 256 221"
    id="vue">
    <path d="M204.8 0H256L128 220.8 0 0h97.92L128 51.2 157.44 0h47.36Z" fill="#41B883"></path>
    <path d="m0 0 128 220.8L256 0h-51.2L128 132.48 50.56 0H0Z" fill="#41B883"></path>
    <path d="M50.56 0 128 133.12 204.8 0h-47.36L128 51.2 97.92 0H50.56Z" fill="#35495E"></path>
  </symbol>
  <symbol xmlns="http://www.w3.org/2000/svg" preserveAspectRatio="xMidYMid" viewBox="0 0 256 228"
    id="react">
    <path
      d="M210.483 73.824a171.49 171.49 0 0 0-8.24-2.597c.465-1.9.893-3.777 1.273-5.621 6.238-30.281 2.16-54.676-11.769-62.708-13.355-7.7-35.196.329-57.254 19.526a171.23 171.23 0 0 0-6.375 5.848 155.866 155.866 0 0 0-4.241-3.917C100.759 3.829 77.587-4.822 63.673 3.233 50.33 10.957 46.379 33.89 51.995 62.588a170.974 170.974 0 0 0 1.892 8.48c-3.28.932-6.445 1.924-9.474 2.98C17.309 83.498 0 98.307 0 113.668c0 15.865 18.582 31.778 46.812 41.427a145.52 145.52 0 0 0 6.921 2.165 167.467 167.467 0 0 0-2.01 9.138c-5.354 28.2-1.173 50.591 12.134 58.266 13.744 7.926 36.812-.22 59.273-19.855a145.567 145.567 0 0 0 5.342-4.923 168.064 168.064 0 0 0 6.92 6.314c21.758 18.722 43.246 26.282 56.54 18.586 13.731-7.949 18.194-32.003 12.4-61.268a145.016 145.016 0 0 0-1.535-6.842c1.62-.48 3.21-.974 4.76-1.488 29.348-9.723 48.443-25.443 48.443-41.52 0-15.417-17.868-30.326-45.517-39.844Zm-6.365 70.984c-1.4.463-2.836.91-4.3 1.345-3.24-10.257-7.612-21.163-12.963-32.432 5.106-11 9.31-21.767 12.459-31.957 2.619.758 5.16 1.557 7.61 2.4 23.69 8.156 38.14 20.213 38.14 29.504 0 9.896-15.606 22.743-40.946 31.14Zm-10.514 20.834c2.562 12.94 2.927 24.64 1.23 33.787-1.524 8.219-4.59 13.698-8.382 15.893-8.067 4.67-25.32-1.4-43.927-17.412a156.726 156.726 0 0 1-6.437-5.87c7.214-7.889 14.423-17.06 21.459-27.246 12.376-1.098 24.068-2.894 34.671-5.345.522 2.107.986 4.173 1.386 6.193ZM87.276 214.515c-7.882 2.783-14.16 2.863-17.955.675-8.075-4.657-11.432-22.636-6.853-46.752a156.923 156.923 0 0 1 1.869-8.499c10.486 2.32 22.093 3.988 34.498 4.994 7.084 9.967 14.501 19.128 21.976 27.15a134.668 134.668 0 0 1-4.877 4.492c-9.933 8.682-19.886 14.842-28.658 17.94ZM50.35 144.747c-12.483-4.267-22.792-9.812-29.858-15.863-6.35-5.437-9.555-10.836-9.555-15.216 0-9.322 13.897-21.212 37.076-29.293 2.813-.98 5.757-1.905 8.812-2.773 3.204 10.42 7.406 21.315 12.477 32.332-5.137 11.18-9.399 22.249-12.634 32.792a134.718 134.718 0 0 1-6.318-1.979Zm12.378-84.26c-4.811-24.587-1.616-43.134 6.425-47.789 8.564-4.958 27.502 2.111 47.463 19.835a144.318 144.318 0 0 1 3.841 3.545c-7.438 7.987-14.787 17.08-21.808 26.988-12.04 1.116-23.565 2.908-34.161 5.309a160.342 160.342 0 0 1-1.76-7.887Zm110.427 27.268a347.8 347.8 0 0 0-7.785-12.803c8.168 1.033 15.994 2.404 23.343 4.08-2.206 7.072-4.956 14.465-8.193 22.045a381.151 381.151 0 0 0-7.365-13.322Zm-45.032-43.861c5.044 5.465 10.096 11.566 15.065 18.186a322.04 322.04 0 0 0-30.257-.006c4.974-6.559 10.069-12.652 15.192-18.18ZM82.802 87.83a323.167 323.167 0 0 0-7.227 13.238c-3.184-7.553-5.909-14.98-8.134-22.152 7.304-1.634 15.093-2.97 23.209-3.984a321.524 321.524 0 0 0-7.848 12.897Zm8.081 65.352c-8.385-.936-16.291-2.203-23.593-3.793 2.26-7.3 5.045-14.885 8.298-22.6a321.187 321.187 0 0 0 7.257 13.246c2.594 4.48 5.28 8.868 8.038 13.147Zm37.542 31.03c-5.184-5.592-10.354-11.779-15.403-18.433 4.902.192 9.899.29 14.978.29 5.218 0 10.376-.117 15.453-.343-4.985 6.774-10.018 12.97-15.028 18.486Zm52.198-57.817c3.422 7.8 6.306 15.345 8.596 22.52-7.422 1.694-15.436 3.058-23.88 4.071a382.417 382.417 0 0 0 7.859-13.026 347.403 347.403 0 0 0 7.425-13.565Zm-16.898 8.101a358.557 358.557 0 0 1-12.281 19.815 329.4 329.4 0 0 1-23.444.823c-7.967 0-15.716-.248-23.178-.732a310.202 310.202 0 0 1-12.513-19.846h.001a307.41 307.41 0 0 1-10.923-20.627 310.278 310.278 0 0 1 10.89-20.637l-.001.001a307.318 307.318 0 0 1 12.413-19.761c7.613-.576 15.42-.876 23.31-.876H128c7.926 0 15.743.303 23.354.883a329.357 329.357 0 0 1 12.335 19.695 358.489 358.489 0 0 1 11.036 20.54 329.472 329.472 0 0 1-11 20.722Zm22.56-122.124c8.572 4.944 11.906 24.881 6.52 51.026-.344 1.668-.73 3.367-1.15 5.09-10.622-2.452-22.155-4.275-34.23-5.408-7.034-10.017-14.323-19.124-21.64-27.008a160.789 160.789 0 0 1 5.888-5.4c18.9-16.447 36.564-22.941 44.612-18.3ZM128 90.808c12.625 0 22.86 10.235 22.86 22.86s-10.235 22.86-22.86 22.86-22.86-10.235-22.86-22.86 10.235-22.86 22.86-22.86Z"
      fill="#00D8FF"></path>
  </symbol>
  <symbol xmlns="http://www.w3.org/2000/svg" viewBox="0 -1 100 50" id="php">
    <path fill="#fff"
      d="M7.579 10.123h14.204c4.169.035 7.19 1.237 9.063 3.604 1.873 2.367 2.491 5.6 1.855 9.699-.247 1.873-.795 3.71-1.643 5.512a16.385 16.385 0 01-3.392 4.876c-1.767 1.837-3.657 3.003-5.671 3.498a26.11 26.11 0 01-6.254.742h-6.36l-2.014 10.07H0l7.579-38.001m6.201 6.042l-3.18 15.9c.212.035.424.053.636.053h.742c3.392.035 6.219-.3 8.48-1.007 2.261-.742 3.781-3.321 4.558-7.738.636-3.71 0-5.848-1.908-6.413-1.873-.565-4.222-.83-7.049-.795-.424.035-.83.053-1.219.053h-1.113l.053-.053M41.093 0h7.314L46.34 10.123h6.572c3.604.071 6.289.813 8.056 2.226 1.802 1.413 2.332 4.099 1.59 8.056l-3.551 17.649h-7.42L54.979 21.2c.353-1.767.247-3.021-.318-3.763s-1.784-1.113-3.657-1.113l-5.883-.053-4.346 21.783h-7.314L41.093 0M70.412 10.123h14.204c4.169.035 7.19 1.237 9.063 3.604 1.873 2.367 2.491 5.6 1.855 9.699-.247 1.873-.795 3.71-1.643 5.512a16.385 16.385 0 01-3.392 4.876c-1.767 1.837-3.657 3.003-5.671 3.498a26.11 26.11 0 01-6.254.742h-6.36L70.2 48.124h-7.367l7.579-38.001m6.201 6.042l-3.18 15.9c.212.035.424.053.636.053h.742c3.392.035 6.219-.3 8.48-1.007 2.261-.742 3.781-3.321 4.558-7.738.636-3.71 0-5.848-1.908-6.413-1.873-.565-4.222-.83-7.049-.795-.424.035-.83.053-1.219.053H76.56l.053-.053"></path>
  </symbol>
  <symbol xmlns="http://www.w3.org/2000/svg" preserveAspectRatio="xMidYMid" viewBox="0 0 256 168"
    id="nuxt">
    <path fill="#00DC82"
      d="M143.618 167.029h95.166c3.023 0 5.992-.771 8.61-2.237a16.963 16.963 0 0 0 6.302-6.115 16.324 16.324 0 0 0 2.304-8.352c0-2.932-.799-5.811-2.312-8.35L189.778 34.6a16.966 16.966 0 0 0-6.301-6.113 17.626 17.626 0 0 0-8.608-2.238c-3.023 0-5.991.772-8.609 2.238a16.964 16.964 0 0 0-6.3 6.113l-16.342 27.473-31.95-53.724a16.973 16.973 0 0 0-6.304-6.112A17.638 17.638 0 0 0 96.754 0c-3.022 0-5.992.772-8.61 2.237a16.973 16.973 0 0 0-6.303 6.112L2.31 141.975A16.302 16.302 0 0 0 0 150.325c0 2.932.793 5.813 2.304 8.352a16.964 16.964 0 0 0 6.302 6.115 17.628 17.628 0 0 0 8.61 2.237h59.737c23.669 0 41.123-10.084 53.134-29.758l29.159-48.983 15.618-26.215 46.874 78.742h-62.492l-15.628 26.214Zm-67.64-26.24-41.688-.01L96.782 35.796l31.181 52.492-20.877 35.084c-7.976 12.765-17.037 17.416-31.107 17.416Z"></path>
  </symbol>
  <symbol xmlns="http://www.w3.org/2000/svg" xmlns:xlink="http://www.w3.org/1999/xlink"
    viewBox="0 0 256 292" id="nodejs">
    <defs>
      <linearGradient id="a" x1="68.188%" x2="27.823%" y1="17.487%" y2="89.755%">
        <stop offset="0%" stop-color="#41873F"></stop>
        <stop offset="32.88%" stop-color="#418B3D"></stop>
        <stop offset="63.52%" stop-color="#419637"></stop>
        <stop offset="93.19%" stop-color="#3FA92D"></stop>
        <stop offset="100%" stop-color="#3FAE2A"></stop>
      </linearGradient>
      <linearGradient id="c" x1="43.277%" x2="159.245%" y1="55.169%" y2="-18.306%">
        <stop offset="13.76%" stop-color="#41873F"></stop>
        <stop offset="40.32%" stop-color="#54A044"></stop>
        <stop offset="71.36%" stop-color="#66B848"></stop>
        <stop offset="90.81%" stop-color="#6CC04A"></stop>
      </linearGradient>
      <linearGradient id="f" x1="-4.389%" x2="101.499%" y1="49.997%" y2="49.997%">
        <stop offset="9.192%" stop-color="#6CC04A"></stop>
        <stop offset="28.64%" stop-color="#66B848"></stop>
        <stop offset="59.68%" stop-color="#54A044"></stop>
        <stop offset="86.24%" stop-color="#41873F"></stop>
      </linearGradient>
      <path id="b"
        d="M134.923 1.832c-4.344-2.443-9.502-2.443-13.846 0L6.787 67.801C2.443 70.244 0 74.859 0 79.745v132.208c0 4.887 2.715 9.502 6.787 11.945l114.29 65.968c4.344 2.444 9.502 2.444 13.846 0l114.29-65.968c4.344-2.443 6.787-7.058 6.787-11.945V79.745c0-4.886-2.715-9.501-6.787-11.944L134.923 1.832Z"></path>
      <path id="e"
        d="M134.923 1.832c-4.344-2.443-9.502-2.443-13.846 0L6.787 67.801C2.443 70.244 0 74.859 0 79.745v132.208c0 4.887 2.715 9.502 6.787 11.945l114.29 65.968c4.344 2.444 9.502 2.444 13.846 0l114.29-65.968c4.344-2.443 6.787-7.058 6.787-11.945V79.745c0-4.886-2.715-9.501-6.787-11.944L134.923 1.832Z"></path>
    </defs>
    <path fill="url(#a)"
      d="M134.923 1.832c-4.344-2.443-9.502-2.443-13.846 0L6.787 67.801C2.443 70.244 0 74.859 0 79.745v132.208c0 4.887 2.715 9.502 6.787 11.945l114.29 65.968c4.344 2.444 9.502 2.444 13.846 0l114.29-65.968c4.344-2.443 6.787-7.058 6.787-11.945V79.745c0-4.886-2.715-9.501-6.787-11.944L134.923 1.832Z"></path>
    <mask id="d" fill="#fff">
      <use xlink:href="#b"></use>
    </mask>
    <path fill="url(#c)"
      d="M249.485 67.8 134.65 1.833c-1.086-.542-2.443-1.085-3.529-1.357L2.443 220.912c1.086 1.357 2.444 2.443 3.8 3.258l114.834 65.968c3.258 1.9 7.059 2.443 10.588 1.357L252.47 70.515c-.815-1.086-1.9-1.9-2.986-2.714Z"
      mask="url(#d)"></path>
    <mask id="g" fill="#fff">
      <use xlink:href="#e"></use>
    </mask>
    <path fill="url(#f)"
      d="M249.756 223.898c3.258-1.9 5.701-5.158 6.787-8.687L130.579.204c-3.258-.543-6.787-.272-9.773 1.628L6.786 67.53l122.979 224.238c1.628-.272 3.529-.815 5.158-1.63l114.833-66.239Z"
      mask="url(#g)"></path>
  </symbol>
  <symbol fill="none" xmlns="http://www.w3.org/2000/svg" viewBox="0 0 394 80" id="nextjs">
    <path d="M261.919 0.0330722H330.547V12.7H303.323V79.339H289.71V12.7H261.919V0.0330722Z"
      fill="white"></path>
    <path
      d="M149.052 0.0330722V12.7H94.0421V33.0772H138.281V45.7441H94.0421V66.6721H149.052V79.339H80.43V12.7H80.4243V0.0330722H149.052Z"
      fill="white"></path>
    <path
      d="M183.32 0.0661486H165.506L229.312 79.3721H247.178L215.271 39.7464L247.127 0.126654L229.312 0.154184L206.352 28.6697L183.32 0.0661486Z"
      fill="white"></path>
    <path d="M201.6 56.7148L192.679 45.6229L165.455 79.4326H183.32L201.6 56.7148Z" fill="white"></path>
    <path fill-rule="evenodd" clip-rule="evenodd"
      d="M80.907 79.339L17.0151 0H0V79.3059H13.6121V16.9516L63.8067 79.339H80.907Z" fill="white"></path>
    <path
      d="M333.607 78.8546C332.61 78.8546 331.762 78.5093 331.052 77.8186C330.342 77.1279 329.991 76.2917 330 75.3011C329.991 74.3377 330.342 73.5106 331.052 72.8199C331.762 72.1292 332.61 71.7838 333.607 71.7838C334.566 71.7838 335.405 72.1292 336.115 72.8199C336.835 73.5106 337.194 74.3377 337.204 75.3011C337.194 75.9554 337.028 76.5552 336.696 77.0914C336.355 77.6368 335.922 78.064 335.377 78.373C334.842 78.6911 334.252 78.8546 333.607 78.8546Z"
      fill="white"></path>
    <path
      d="M356.84 45.4453H362.872V68.6846C362.863 70.8204 362.401 72.6472 361.498 74.1832C360.585 75.7191 359.321 76.8914 357.698 77.7185C356.084 78.5364 354.193 78.9546 352.044 78.9546C350.079 78.9546 348.318 78.6001 346.75 77.9094C345.182 77.2187 343.937 76.1826 343.024 74.8193C342.101 73.456 341.649 71.7565 341.649 69.7207H347.691C347.7 70.6114 347.903 71.3838 348.29 72.0291C348.677 72.6744 349.212 73.1651 349.895 73.5105C350.586 73.8559 351.38 74.0286 352.274 74.0286C353.243 74.0286 354.073 73.8286 354.746 73.4196C355.419 73.0197 355.936 72.4199 356.296 71.6201C356.646 70.8295 356.831 69.8479 356.84 68.6846V45.4453Z"
      fill="white"></path>
    <path
      d="M387.691 54.5338C387.544 53.1251 386.898 52.0254 385.773 51.2438C384.638 50.4531 383.172 50.0623 381.373 50.0623C380.11 50.0623 379.022 50.2532 378.118 50.6258C377.214 51.0075 376.513 51.5164 376.033 52.1617C375.554 52.807 375.314 53.5432 375.295 54.3703C375.295 55.061 375.461 55.6608 375.784 56.1607C376.107 56.6696 376.54 57.0968 377.103 57.4422C377.656 57.7966 378.274 58.0874 378.948 58.3237C379.63 58.56 380.313 58.76 380.995 58.9236L384.14 59.6961C385.404 59.9869 386.631 60.3778 387.802 60.8776C388.973 61.3684 390.034 61.9955 390.965 62.7498C391.897 63.5042 392.635 64.413 393.179 65.4764C393.723 66.5397 394 67.7848 394 69.2208C394 71.1566 393.502 72.8562 392.496 74.3285C391.491 75.7917 390.043 76.9369 388.143 77.764C386.252 78.582 383.965 79 381.272 79C378.671 79 376.402 78.6002 374.493 77.8004C372.575 77.0097 371.08 75.8463 370.001 74.3194C368.922 72.7926 368.341 70.9294 368.258 68.7391H374.235C374.318 69.8842 374.687 70.8386 375.314 71.6111C375.95 72.3745 376.78 72.938 377.795 73.3197C378.819 73.6923 379.962 73.8832 381.226 73.8832C382.545 73.8832 383.707 73.6832 384.712 73.2924C385.708 72.9016 386.492 72.3564 387.055 71.6475C387.627 70.9476 387.913 70.1206 387.922 69.1754C387.913 68.312 387.654 67.5939 387.156 67.0304C386.649 66.467 385.948 65.9944 385.053 65.6127C384.15 65.231 383.098 64.8856 381.899 64.5857L378.081 63.6223C375.323 62.9225 373.137 61.8592 371.541 60.4323C369.937 59.0054 369.143 57.115 369.143 54.7429C369.143 52.798 369.678 51.0894 370.758 49.6261C371.827 48.1629 373.294 47.0268 375.148 46.2179C377.011 45.4 379.114 45 381.456 45C383.836 45 385.92 45.4 387.719 46.2179C389.517 47.0268 390.929 48.1538 391.952 49.5897C392.976 51.0257 393.511 52.6707 393.539 54.5338H387.691Z"
      fill="white"></path>
  </symbol>
  <symbol xmlns="http://www.w3.org/2000/svg" preserveAspectRatio="xMidYMid" viewBox="0 0 256 252"
    id="mysql">
    <path
      d="M236 194c-14 0-25 1-34 5-3 1-7 1-7 4l3 6c2 3 5 8 9 11l11 8 21 10 11 9 6 4-3-6-5-5c-5-7-11-13-18-18-6-3-18-9-20-15h-1l12-3 18-3 8-2v-2l-9-10c-8-8-18-15-28-22l-18-8c-2-1-6-2-7-4l-7-13-15-30-8-20c-18-30-38-48-68-65-6-4-14-5-22-7l-13-1-8-6C34 5 8-9 1 9c-5 11 7 22 11 28l9 13 3 9c3 8 5 17 9 24l6 10c2 2 4 3 5 6-3 4-3 9-4 13-7 20-4 44 5 59 2 4 9 14 18 10 8-3 6-13 8-22l1-4 8 14c5 9 14 18 22 24 4 3 8 8 13 10l-4-4-9-10c-8-10-14-21-20-32l-7-17-3-6c-3 4-7 7-9 12-3 7-3 17-4 26h-1c-6-1-8-7-10-12-5-12-6-32-1-46 1-4 6-15 4-19-1-3-4-5-6-7l-7-12-10-30-9-13c-3-5-7-8-10-14-1-2-2-5 0-7l2-2c2-2 9 0 11 1 6 3 12 5 17 9l8 6h4c6 1 12 0 17 2 9 3 18 7 25 12 23 14 42 35 54 59 3 4 3 8 5 12l12 26c4 8 7 16 12 23 3 4 14 6 18 8l12 4 18 12c2 2 11 7 12 10Z"
      fill="#00546B"></path>
    <path d="m58 43-7 1 6 7 4 9v-1c3-1 4-4 4-8l-2-4-5-4Z" fill="#00546B"></path>
  </symbol>
  <symbol xmlns="http://www.w3.org/2000/svg" viewBox="0 0 1052 1052" id="javascript">
    <path fill="#f0db4f" d="M0 0h1052v1052H0z"></path>
    <path
      d="M965.9 801.1c-7.7-48-39-88.3-131.7-125.9-32.2-14.8-68.1-25.399-78.8-49.8-3.8-14.2-4.3-22.2-1.9-30.8 6.9-27.9 40.2-36.6 66.6-28.6 17 5.7 33.1 18.801 42.8 39.7 45.4-29.399 45.3-29.2 77-49.399-11.6-18-17.8-26.301-25.4-34-27.3-30.5-64.5-46.2-124-45-10.3 1.3-20.699 2.699-31 4-29.699 7.5-58 23.1-74.6 44-49.8 56.5-35.6 155.399 25 196.1 59.7 44.8 147.4 55 158.6 96.9 10.9 51.3-37.699 67.899-86 62-35.6-7.4-55.399-25.5-76.8-58.4-39.399 22.8-39.399 22.8-79.899 46.1 9.6 21 19.699 30.5 35.8 48.7 76.2 77.3 266.899 73.5 301.1-43.5 1.399-4.001 10.6-30.801 3.199-72.101zm-394-317.6h-98.4c0 85-.399 169.4-.399 254.4 0 54.1 2.8 103.7-6 118.9-14.4 29.899-51.7 26.2-68.7 20.399-17.3-8.5-26.1-20.6-36.3-37.699-2.8-4.9-4.9-8.7-5.601-9-26.699 16.3-53.3 32.699-80 49 13.301 27.3 32.9 51 58 66.399 37.5 22.5 87.9 29.4 140.601 17.3 34.3-10 63.899-30.699 79.399-62.199 22.4-41.3 17.6-91.3 17.4-146.6.5-90.2 0-180.4 0-270.9z"
      fill="#323330"></path>
  </symbol>
  <symbol xmlns="http://www.w3.org/2000/svg" viewBox="0 0 32 32" id="expressjs_dark">
    <path fill="#fff"
      d="M32 24.795c-1.164.296-1.884.013-2.53-.957l-4.594-6.356-.664-.88-5.365 7.257c-.613.873-1.256 1.253-2.4.944l6.87-9.222-6.396-8.33c1.1-.214 1.86-.105 2.535.88l4.765 6.435 4.8-6.4c.615-.873 1.276-1.205 2.38-.883l-2.48 3.288-3.36 4.375c-.4.5-.345.842.023 1.325L32 24.795zM.008 15.427l.562-2.764C2.1 7.193 8.37 4.92 12.694 8.3c2.527 1.988 3.155 4.8 3.03 7.95H1.48c-.214 5.67 3.867 9.092 9.07 7.346 1.825-.613 2.9-2.042 3.438-3.83.273-.896.725-1.036 1.567-.78-.43 2.236-1.4 4.104-3.45 5.273-3.063 1.75-7.435 1.184-9.735-1.248C1 21.6.434 19.812.18 17.9c-.04-.316-.12-.617-.18-.92q.008-.776.008-1.552zm1.498-.38h12.872c-.084-4.1-2.637-7.012-6.126-7.037-3.83-.03-6.58 2.813-6.746 7.037z"></path>
  </symbol>
</svg>