<svg width="0" height="0" class="hidden">
  <symbol version="1.1" xmlns="http://www.w3.org/2000/svg" xmlns:xlink="http://www.w3.org/1999/xlink" preserveAspectRatio="xMidYMid" viewBox="0 0 256 256" id="javascript">
    <g>
      <path d="M0,0 L256,0 L256,256 L0,256 L0,0 Z" fill="#F7DF1E"></path>
      <path d="M67.311746,213.932292 L86.902654,202.076241 C90.6821079,208.777346 94.1202286,214.447137 102.367086,214.447137 C110.272203,214.447137 115.256076,211.354819 115.256076,199.326883 L115.256076,117.528787 L139.313575,117.528787 L139.313575,199.666997 C139.313575,224.58433 124.707759,235.925943 103.3984,235.925943 C84.1532952,235.925943 72.9819429,225.958603 67.3113397,213.93026" fill="#000000"></path>
      <path d="M152.380952,211.354413 L171.969422,200.0128 C177.125994,208.433981 183.827911,214.619835 195.684368,214.619835 C205.652521,214.619835 212.009041,209.635962 212.009041,202.762159 C212.009041,194.513676 205.479416,191.592025 194.481168,186.78207 L188.468419,184.202565 C171.111213,176.81473 159.597308,167.53534 159.597308,147.944838 C159.597308,129.901308 173.344508,116.153295 194.825752,116.153295 C210.119924,116.153295 221.117765,121.48094 229.021663,135.400432 L210.29059,147.428775 C206.166146,140.040127 201.699556,137.119289 194.826159,137.119289 C187.78047,137.119289 183.312254,141.587098 183.312254,147.428775 C183.312254,154.646349 187.78047,157.568406 198.089956,162.036622 L204.103924,164.614095 C224.553448,173.378641 236.067352,182.313448 236.067352,202.418387 C236.067352,224.071924 219.055137,235.927975 196.200432,235.927975 C173.860978,235.927975 159.425829,225.274311 152.381359,211.354413" fill="#000000"></path>
    </g>
  </symbol>
  <symbol version="1.1" xmlns="http://www.w3.org/2000/svg" xmlns:xlink="http://www.w3.org/1999/xlink" preserveAspectRatio="xMidYMid" viewBox="0 0 512 349" id="mysql">
    <title>MySQL</title>
    <g>
      <path d="M152.309482,230.297132 L167.86997,280.784245 C171.365572,292.247035 172.823596,300.249204 172.240386,304.810306 C180.750861,282.018239 186.69631,257.179801 190.078866,230.297132 L208.788809,230.297132 C200.744231,274.062814 190.133104,305.867404 176.962131,325.707846 C166.699894,340.995741 155.457718,348.639536 143.215797,348.639536 C139.952382,348.639536 135.928112,347.65393 131.152739,345.695549 L131.152739,335.145347 C133.485579,335.487834 136.223069,335.670535 139.371305,335.670535 C145.082434,335.670535 149.685038,334.087943 153.186734,330.929176 C157.380116,327.08024 159.478635,322.754083 159.478635,317.959869 C159.478635,314.68531 157.841748,307.966018 154.582903,297.801687 L132.902369,230.297132 L152.309482,230.297132 Z M33.2240656,199.265507 L61.7248633,286.222494 L61.8997562,286.222494 L90.5754558,199.265507 L114.003486,199.265507 C119.133538,242.389598 122.162939,281.847453 123.093515,317.611577 L103.34119,317.611577 C102.646457,284.178568 100.720707,252.740602 97.5730804,223.291568 L97.3990803,223.291568 L67.3211176,317.611577 L52.279851,317.611577 L22.3841033,223.291568 L22.2079824,223.291568 C19.9897133,251.573517 18.5941538,283.011483 18.0121629,317.611577 L1.41179433e-16,317.611577 C1.1639819,275.532363 4.07698373,236.086729 8.73900548,199.265507 L33.2240656,199.265507 Z" fill="#00758F" fill-rule="nonzero"></path>
      <path d="M352.497915,197.509381 C383.154516,197.509381 398.484341,217.096242 398.484341,256.248578 C398.484341,277.524962 393.874119,293.595598 384.662818,304.453459 C383.002163,306.437198 381.167855,308.150857 379.235981,309.739254 L379.235981,309.739254 L400.931141,320.466047 L400.909811,320.464825 L393.20681,333.766842 L364.954349,317.281922 C360.270998,318.668675 355.118397,319.361899 349.502642,319.361899 C334.450101,319.361899 323.206401,314.974638 315.771543,306.212336 C307.611482,296.518199 303.534498,281.25719 303.534498,260.454666 C303.534498,239.298962 308.135578,223.288818 317.349927,212.41782 C325.741566,202.474074 337.460609,197.509381 352.497915,197.509381 Z M258.617594,197.682305 C269.574869,197.682305 279.538798,200.614376 288.512428,206.457438 L283.954007,216.613826 C276.275382,213.349655 268.703406,211.711153 261.238077,211.711153 C255.180496,211.711153 250.51238,213.169398 247.258106,216.102998 C243.985549,219.011239 241.962293,222.753854 241.962293,227.315261 C241.962293,234.324186 246.956446,240.403721 256.176889,245.540116 C258.657424,246.888835 261.888271,248.687364 265.208154,250.551383 L265.896079,250.937851 C266.010873,251.002376 266.125718,251.066947 266.240588,251.131549 L266.929885,251.519402 C267.044745,251.584063 267.159575,251.648724 267.274348,251.713368 L267.962087,252.100904 C274.942764,256.036258 281.510254,259.792299 281.510254,259.792299 C290.730697,266.33714 295.325683,273.314902 295.325683,284.807938 C295.325683,294.844563 291.647866,303.08412 284.316608,309.530889 C276.979256,315.949245 267.121975,319.166977 254.778282,319.166977 C243.232922,319.166977 232.04407,315.463469 221.205631,308.116945 L226.275961,297.951086 C235.603052,302.625841 244.043444,304.960316 251.621514,304.960316 C258.730336,304.960316 264.294291,303.374059 268.319475,300.240039 C272.335517,297.08341 274.742705,292.680873 274.742705,287.096891 C274.742705,280.06994 269.8552,274.063425 260.887664,269.024491 C258.559224,267.743313 255.576874,266.07017 252.492622,264.326885 L251.80578,263.938465 C250.544317,263.224723 249.272726,262.503296 248.028336,261.795946 L247.3525,261.411646 C241.298293,257.967862 236.06316,254.958674 236.06316,254.958674 C227.098671,248.401918 222.604238,241.366718 222.604238,229.774999 C222.604238,220.1881 225.956018,212.439207 232.650438,206.543595 C239.360093,200.636068 248.016827,197.682305 258.617594,197.682305 Z M434.512933,199.265507 L434.512933,303.053568 L471.751212,303.053568 L471.751212,317.611577 L415.627174,317.611577 L415.627174,199.265507 L434.512933,199.265507 Z M492.443885,303.099091 L492.443885,305.558524 L488.348619,305.558524 L488.348619,317.599356 L485.219275,317.599356 L485.219275,305.558524 L480.965561,305.558524 L480.965561,303.099091 L492.443885,303.099091 Z M500.003704,303.099091 L503.934428,312.982955 L507.54521,303.099091 L511.981748,303.099091 L511.981748,317.599356 L509.032151,317.599356 L509.032151,306.563683 L504.921649,317.599356 L502.794823,317.599356 L498.678227,306.563683 L498.519749,306.563683 L498.519749,317.599356 L495.72866,317.599356 L495.72866,303.099091 L500.003704,303.099091 Z M350.569117,212.063723 C332.503021,212.063723 323.465403,226.973385 323.465403,256.77346 C323.465403,273.843146 325.860402,286.222494 330.64126,293.936864 L330.64126,293.936864 C335.068657,301.077468 342.003795,304.639826 351.446674,304.639826 C369.51277,304.639826 378.550389,289.614373 378.550389,259.575686 C378.550389,242.744612 376.15539,230.472501 371.380626,222.754465 C366.947135,215.629748 360.015044,212.063723 350.569117,212.063723 Z" fill="#F29111" fill-rule="nonzero"></path>
      <path d="M303.217602,7.33321895 C309.211195,-7.39282549 330.165916,3.7586397 338.298554,8.90358967 C340.29134,10.1898272 342.576645,12.9089515 344.86195,13.914111 C348.427025,14.05465 351.989053,14.3326729 355.560223,14.4823775 C362.25769,16.0558034 368.531613,17.3420409 373.809143,20.3483537 C398.338081,34.7933201 414.304744,49.5132541 429.000777,73.8265034 C432.139263,78.9775638 433.708536,84.5502412 436.274141,90.1229186 C439.833122,98.4299963 443.833929,107.149526 447.96576,115.005351 C449.815333,118.729024 451.247427,122.870342 453.81614,126.015055 C454.818627,127.453136 457.667671,127.876586 459.370954,128.736012 C464.078682,131.172837 469.782803,133.022758 474.2102,135.883338 C482.479956,141.038981 490.475476,147.18298 497.742745,153.472406 C500.451593,155.900982 502.298119,159.338108 504.87899,161.906275 L504.87899,161.906275 L504.87899,163.202289 C502.587591,163.90529 500.305334,164.625094 498.020029,165.201304 C493.028923,166.484486 488.60762,166.194242 483.765821,167.477425 C480.773595,168.344795 477.059213,169.49049 473.920728,169.780737 C474.060894,169.921581 474.2102,170.07311 474.2102,170.07311 C476.056726,175.347906 486.045032,179.638317 490.612594,182.792502 C496.161314,186.796641 501.301727,191.653792 505.439652,197.229525 C506.868729,198.653246 508.297806,199.948343 509.720789,201.367176 C510.714135,202.805257 510.994435,204.664649 512,205.947832 L512,205.947832 L512,206.380753 C510.886126,205.987651 510.085422,205.238298 509.325681,204.453825 L508.872575,203.981496 C508.420028,203.510091 507.962628,203.049164 507.441579,202.668079 C504.293952,200.517526 501.167655,197.945663 498.020029,195.946648 C492.608427,192.513219 486.331457,190.520009 480.773595,187.073442 C477.632063,185.071983 474.63676,182.792502 471.641518,180.503549 C468.926575,178.496285 465.937397,174.641544 464.231036,171.781881 C463.225532,170.202039 463.088384,168.344786 461.939637,167.202753 C462.145191,165.293305 463.894482,164.725632 465.658657,164.259501 L466.065343,164.15317 C466.67368,163.994685 467.269709,163.836935 467.790017,163.62848 C475.203546,160.4801 484.043105,159.338083 495.45744,159.62434 L495.45744,159.62434 C495.027742,156.757967 487.894514,153.18736 485.618381,151.471256 C481.047771,148.177144 476.209019,144.740048 471.361126,141.74229 C468.792443,140.171614 464.365077,139.025915 461.51908,137.743039 C457.66758,136.169002 449.108351,134.595881 446.9754,131.598123 C443.350321,126.872182 440.746267,121.235168 438.218034,115.54054 L437.529685,113.986673 C437.300389,113.468668 437.071009,112.950829 436.840835,112.433796 C433.851657,105.577019 430.140322,98.4278608 427.145049,91.4070205 C425.578853,87.9821458 424.859744,84.975833 423.144242,81.6914974 C412.738488,61.5333146 397.335533,44.6564122 378.660023,32.786976 C372.523218,28.9252083 365.679492,25.350629 358.125798,22.9217483 C353.84466,21.6294004 348.707295,22.3443162 344.145826,21.3513775 L344.145826,21.3513775 L341.14449,21.3513775 C338.581902,20.6303513 336.442826,17.9142516 334.443976,16.4813952 C330.028768,13.484248 325.607465,11.4708739 320.326887,9.33223671 C318.477314,8.47372665 313.193719,6.47565906 311.35021,8.04905442 C310.207557,8.33624283 309.628614,8.76705601 309.348313,9.91275449 C308.211725,11.6236642 309.211164,14.1991944 309.918116,15.7756755 C312.060208,20.3462486 315.052434,23.0623178 317.767376,26.9240855 C320.183705,30.3489601 323.185072,34.2107278 324.897527,37.9350117 C328.593627,45.939625 330.315223,54.8088589 333.740133,62.8134722 C335.010762,65.8228402 337.018753,69.2477149 338.868357,71.9637841 C340.434552,74.1176972 343.283596,75.6758777 344.145887,78.4041371 C345.864437,81.2638005 341.574158,90.7012702 340.580812,93.698448 C336.866399,105.425207 337.585509,121.725593 341.863599,131.891452 C341.939844,132.068817 342.015799,132.247617 342.091741,132.427477 L342.319802,132.969854 C343.881696,136.692637 345.553537,140.701633 349.706765,141.743237 C349.99319,141.459107 349.706765,141.608491 350.273521,141.459107 C351.279085,133.590756 351.562433,126.01387 354.274328,119.857955 C355.840523,116.009019 358.969898,113.288062 361.115007,110.145793 C362.544084,111.001553 362.544084,113.582858 363.397295,115.290743 C365.252962,119.720777 367.245779,124.577927 369.5341,129.021099 C374.22964,138.171411 379.513264,147.042172 385.500763,155.04648 C387.505737,157.904616 390.351673,161.051804 392.917338,163.627303 C394.060021,164.623847 395.339762,165.200118 396.199036,166.483239 L396.199036,166.483239 L396.479367,166.483239 L396.479367,166.915244 C392.201276,165.337541 389.489381,160.91209 386.07666,158.32831 C379.65343,153.47116 371.95957,146.17688 367.532173,139.177426 C365.679553,135.160149 363.677595,131.309074 361.681793,127.311045 L361.681793,127.311045 L361.681793,127.022048 C360.828582,128.164446 361.115007,129.298107 360.688447,131.026187 C358.835827,138.171374 360.261857,146.322392 353.844721,148.891751 C346.571358,151.90173 341.14452,144.034601 338.868357,140.460327 C331.591946,128.593946 329.599161,108.576302 334.730432,92.4173707 C335.870037,88.8397363 336.025438,84.5502412 338.015176,81.693633 C337.585539,79.1119924 335.59577,78.4062116 334.444007,76.8236506 C332.448174,74.1198022 330.738766,70.9698647 329.175618,67.9666376 C326.174251,62.1006614 324.038252,55.0920419 321.759042,48.8013935 C320.756555,46.2319737 320.47016,43.6533883 319.47069,41.2214523 C317.767376,37.5093893 314.625813,33.7851054 312.203421,30.5007698 C308.921723,25.780492 299.366102,16.6332354 303.217602,7.33321895 Z M349.990143,35.3480734 C350.371027,35.7299729 350.831135,36.064011 351.30693,36.3925046 L351.881347,36.7867437 C352.646432,37.3160693 353.386614,37.874533 353.841643,38.6354642 C354.560722,39.6406237 354.694824,40.6335624 355.557145,41.6418076 C355.557145,45.078903 354.560722,47.3642201 352.549684,48.7879109 C352.549684,48.7879109 352.412566,48.9376766 352.272431,49.0781851 C351.132795,46.7867881 350.133386,44.507673 348.984639,42.2192702 C347.570797,40.221172 345.571887,38.6355253 344.420124,36.353294 L344.420124,36.353294 L344.14284,36.353294 L344.14284,36.0661361 C345.864437,35.6414333 347.570828,35.3480734 349.990173,35.3480734 Z" fill="#00758F"></path>
    </g>
  </symbol>
  <symbol version="1.1" xmlns="http://www.w3.org/2000/svg" preserveAspectRatio="xMidYMid" viewBox="0 0 256 168" id="nuxt-icon">
    <title>Nuxt</title>
    <g>
      <path d="M143.618122,167.029035 L238.783939,167.029035 C241.806854,167.029035 244.776203,166.258021 247.393863,164.791742 C250.011522,163.325464 252.184969,161.216944 253.695615,158.677198 C255.206261,156.137993 256,153.257377 256,150.325361 C256,147.393344 255.201391,144.513811 253.68804,141.975147 L189.777766,34.5996651 C188.26712,32.0608387 186.093673,29.9524814 183.476555,28.4865815 C180.859437,27.0207356 177.890629,26.2489644 174.868796,26.2489644 C171.846422,26.2489644 168.877613,27.0207356 166.260495,28.4865815 C163.643377,29.9524814 161.470471,32.0608387 159.959825,34.5996651 L143.618122,62.0732374 L111.667314,8.34948876 C110.155586,5.81082466 107.981598,3.70279201 105.363938,2.23716798 C102.745738,0.771560187 99.7763886,7.10542736e-15 96.7540148,7.10542736e-15 C93.7316411,7.10542736e-15 90.7622914,0.771560187 88.1440911,2.23716798 C85.526432,3.70279201 83.3524438,5.81082466 81.8407159,8.34948876 L2.31153321,141.975147 C0.798555412,144.513811 -1.42108547e-14,147.393344 -1.42108547e-14,150.325361 C-1.42108547e-14,153.257377 0.793339571,156.137993 2.30403949,158.677198 C3.81473942,161.216944 5.98822437,163.325464 8.60582946,164.791742 C11.2234886,166.258021 14.1930006,167.029035 17.215699,167.029035 L76.9527595,167.029035 C100.621528,167.029035 118.076196,156.944716 130.086696,137.270611 L159.245623,88.2877037 L174.863926,62.0732374 L221.737773,140.81511 L159.245623,140.81511 L143.618122,167.029035 Z M75.9788474,140.788056 L34.2901088,140.778858 L96.781609,35.7961702 L127.963027,88.2877037 L107.085599,123.371804 C99.1097999,136.137085 90.0486303,140.788056 75.9788474,140.788056 Z" fill="#00DC82"></path>
    </g>
  </symbol>
  <symbol version="1.1" xmlns="http://www.w3.org/2000/svg" xmlns:xlink="http://www.w3.org/1999/xlink" preserveAspectRatio="xMidYMid" viewBox="0 0 256 135" id="php">
    <defs>
      <radialGradient id="radialGradient-1" cx="0.8366" cy="-125.811" r="363.0565" gradientTransform="matrix(0.463 0 0 0.463 76.4644 81.9182)" gradientUnits="userSpaceOnUse">
        <stop offset="0"></stop>
        <stop offset="0.5"></stop>
        <stop offset="1"></stop>
      </radialGradient>
    </defs>
    <g>
      <ellipse fill="url(#radialGradient-1)" cx="128" cy="67.3" rx="128" ry="67.3"></ellipse>
      <ellipse fill="#6181B6" cx="128" cy="67.3" rx="123" ry="62.3"></ellipse>
      <g>
        <path fill="#FFFFFF" d="M152.9,87.5c0,0,6.1-31.4,6.1-31.4c1.4-7.1,0.2-12.4-3.4-15.7c-3.5-3.2-9.5-4.8-18.3-4.8h-10.6l3-15.6
				c0.1-0.6,0-1.2-0.4-1.7c-0.4-0.5-0.9-0.7-1.5-0.7h-14.6c-1,0-1.8,0.7-2,1.6l-6.5,33.3c-0.6-3.8-2-7-4.4-9.6
				c-4.3-4.9-11-7.4-20.1-7.4H52.1c-1,0-1.8,0.7-2,1.6L37,104.7c-0.1,0.6,0,1.2,0.4,1.7c0.4,0.5,0.9,0.7,1.5,0.7h14.7
				c1,0,1.8-0.7,2-1.6l3.2-16.3h10.9c5.7,0,10.6-0.6,14.3-1.8c3.9-1.3,7.4-3.4,10.5-6.3c2.5-2.3,4.6-4.9,6.2-7.7l-2.6,13.5
				c-0.1,0.6,0,1.2,0.4,1.7s0.9,0.7,1.5,0.7h14.6c1,0,1.8-0.7,2-1.6l7.2-37h10c4.3,0,5.5,0.8,5.9,1.2c0.3,0.3,0.9,1.5,0.2,5.2
				l-5.8,29.9c-0.1,0.6,0,1.2,0.4,1.7c0.4,0.5,0.9,0.7,1.5,0.7H151C151.9,89.1,152.7,88.4,152.9,87.5z M85.3,61.5
				c-0.9,4.7-2.6,8.1-5.1,10c-2.5,1.9-6.6,2.9-12,2.9h-6.5l4.7-24.2h8.4c6.2,0,8.7,1.3,9.7,2.4C85.8,54.2,86.1,57.3,85.3,61.5z"></path>
        <path fill="#FFFFFF" d="M215.3,42.9c-4.3-4.9-11-7.4-20.1-7.4h-28.3c-1,0-1.8,0.7-2,1.6l-13.1,67.5c-0.1,0.6,0,1.2,0.4,1.7
				c0.4,0.5,0.9,0.7,1.5,0.7h14.7c1,0,1.8-0.7,2-1.6l3.2-16.3h10.9c5.7,0,10.6-0.6,14.3-1.8c3.9-1.3,7.4-3.4,10.5-6.3
				c2.6-2.4,4.8-5.1,6.4-8c1.6-2.9,2.8-6.1,3.5-9.6C220.9,54.7,219.6,47.9,215.3,42.9z M200,61.5c-0.9,4.7-2.6,8.1-5.1,10
				c-2.5,1.9-6.6,2.9-12,2.9h-6.5l4.7-24.2h8.4c6.2,0,8.7,1.3,9.7,2.4C200.6,54.2,200.9,57.3,200,61.5z"></path>
      </g>
      <g>
        <path fill="#000004" d="M74.8,48.2c5.6,0,9.3,1,11.2,3.1c1.9,2.1,2.3,5.6,1.3,10.6c-1,5.2-3,9-5.9,11.2c-2.9,2.2-7.3,3.3-13.2,3.3
				h-8.9l5.5-28.2H74.8z M39,105h14.7l3.5-17.9h12.6c5.6,0,10.1-0.6,13.7-1.8c3.6-1.2,6.8-3.1,9.8-5.9c2.5-2.3,4.5-4.8,6-7.5
				c1.5-2.7,2.6-5.7,3.2-9c1.6-8,0.4-14.2-3.5-18.7c-3.9-4.5-10.1-6.7-18.6-6.7H52.1L39,105z"></path>
        <path fill="#000004" d="M113.3,19.6h14.6l-3.5,17.9h13c8.2,0,13.8,1.4,16.9,4.3c3.1,2.9,4,7.5,2.8,13.9L151,87.1h-14.8l5.8-29.9
				c0.7-3.4,0.4-5.7-0.7-6.9c-1.1-1.2-3.6-1.9-7.3-1.9h-11.7l-7.5,38.7h-14.6L113.3,19.6z"></path>
        <path fill="#000004" d="M189.5,48.2c5.6,0,9.3,1,11.2,3.1c1.9,2.1,2.3,5.6,1.3,10.6c-1,5.2-3,9-5.9,11.2c-2.9,2.2-7.3,3.3-13.2,3.3
				h-8.9l5.5-28.2H189.5z M153.7,105h14.7l3.5-17.9h12.6c5.6,0,10.1-0.6,13.7-1.8c3.6-1.2,6.8-3.1,9.8-5.9c2.5-2.3,4.5-4.8,6-7.5
				c1.5-2.7,2.6-5.7,3.2-9c1.6-8,0.4-14.2-3.5-18.7c-3.9-4.5-10.1-6.7-18.6-6.7h-28.3L153.7,105z"></path>
      </g>
    </g>
  </symbol>
  <symbol version="1.1" xmlns="http://www.w3.org/2000/svg" xmlns:xlink="http://www.w3.org/1999/xlink" preserveAspectRatio="xMidYMid" viewBox="0 0 256 154" id="tailwindcss-icon">
    <defs>
      <linearGradient x1="-2.77777778%" y1="32%" x2="100%" y2="67.5555556%" id="linearGradient-1">
        <stop stop-color="#2298BD" offset="0%"></stop>
        <stop stop-color="#0ED7B5" offset="100%"></stop>
      </linearGradient>
    </defs>
    <g>
      <path d="M128,-1.0658141e-14 C93.8666667,-1.0658141e-14 72.5333333,17.0666667 64,51.2 C76.8,34.1333333 91.7333333,27.7333333 108.8,32 C118.537481,34.4343704 125.497363,41.4985481 133.201067,49.3184 C145.750756,62.0567704 160.275437,76.8 192,76.8 C226.133333,76.8 247.466667,59.7333333 256,25.6 C243.2,42.6666667 228.266667,49.0666667 211.2,44.8 C201.462519,42.3656296 194.502637,35.3014519 186.798933,27.4816 C174.249244,14.7432296 159.724563,-1.0658141e-14 128,-1.0658141e-14 Z M64,76.8 C29.8666667,76.8 8.53333333,93.8666667 0,128 C12.8,110.933333 27.7333333,104.533333 44.8,108.8 C54.5374815,111.23437 61.497363,118.298548 69.2010667,126.1184 C81.7507556,138.85677 96.275437,153.6 128,153.6 C162.133333,153.6 183.466667,136.533333 192,102.4 C179.2,119.466667 164.266667,125.866667 147.2,121.6 C137.462519,119.16563 130.502637,112.101452 122.798933,104.2816 C110.249244,91.5432296 95.724563,76.8 64,76.8 Z" fill="url(#linearGradient-1)"></path>
    </g>
  </symbol>
  <symbol version="1.1" xmlns="http://www.w3.org/2000/svg" xmlns:xlink="http://www.w3.org/1999/xlink" preserveAspectRatio="xMidYMid" viewBox="0 0 256 221" id="vue">
    <g>
      <path d="M204.8,0 L256,0 L128,220.8 L0,0 L50.56,0 L97.92,0 L128,51.2 L157.44,0 L204.8,0 Z" fill="#41B883"></path>
      <path d="M0,0 L128,220.8 L256,0 L204.8,0 L128,132.48 L50.56,0 L0,0 Z" fill="#41B883"></path>
      <path d="M50.56,0 L128,133.12 L204.8,0 L157.44,0 L128,51.2 L97.92,0 L50.56,0 Z" fill="#35495E"></path>
    </g>
  </symbol>
</svg>